# xmcd
#
# Track frame offsets:
# 150
# 3644
# 17838
# 32032
# 45662
# 55844
# 69588
# 78336
# 88015
# 99388
# 109888
#
# Disc length: 1847 seconds
#
#
# Revision: 0
# Processed by: cddbd v1.5.1PL2 Copyright (c) Steve Scherf et al.
# Submitted via: FreeRIP 2.944 
#
DISCID=8607350b
DTITLE=Various Artist - Country Fest 2
DYEAR=1999
DGENRE=Country
TTITLE0=Y'All Come  - Diverse artister
TTITLE1=Jeg snudde meg bort - Ottar Big Hand Johansen
TTITLE2=Mitt Barndomsparadis - Lillian Askeland
TTITLE3=Sangen om Jesse Rawlins - Helge Borglund
TTITLE4=Adios Amigo - Bjøro Håland
TTITLE5=Jeg vet - Lillian Askeland
TTITLE6=Da leker livet - Gro Anita Schønn
TTITLE7=Gi meg et tegn på dine drømmer - Helge Borglund
TTITLE8=Galoppiggen - Country Snakes
TTITLE9=Hei min kjære - Gro Anita Schønn/Helge Borglund
TTITLE10=Countryfest medley - diverse artister
EXTD=
EXTT0=
EXTT1=
EXTT2=
EXTT3=
EXTT4=
EXTT5=
EXTT6=
EXTT7=
EXTT8=
EXTT9=
EXTT10=
PLAYORDER=
